<svg xmlns="http://www.w3.org/2000/svg" viewBox="0 0 512 512">
  <defs>
    <linearGradient id="g" x1="62" x2="450" y1="42" y2="470" gradientUnits="userSpaceOnUse">
      <stop stop-color="#FF6B6B"/>
      <stop offset=".48" stop-color="#EE5A9D"/>
      <stop offset="1" stop-color="#8B5CF6"/>
    </linearGradient>
    <linearGradient id="t" x1="142" x2="374" y1="112" y2="400" gradientUnits="userSpaceOnUse">
      <stop stop-color="#06D6A0"/>
      <stop offset="1" stop-color="#4CC9F0"/>
    </linearGradient>
  </defs>
  <rect width="512" height="512" rx="116" fill="#1A1025"/>
  <path fill="url(#g)" d="M256 54c79 0 145 42 182 104 17 28 5 64-24 80l-118 65c-25 14-55 14-80 0L98 238c-29-16-41-52-24-80C111 96 177 54 256 54Z"/>
  <path fill="url(#t)" d="M113 284c0-18 20-29 35-19l68 42c25 15 56 15 80 0l68-42c15-10 35 1 35 19 0 71-56 174-143 174S113 355 113 284Z"/>
  <circle cx="256" cy="235" r="42" fill="#FAFAF7"/>
</svg>
